<svg id="Camada_1" data-name="Camada 1" xmlns="http://www.w3.org/2000/svg" viewBox="0 0 24 24"><defs><style>.cls-1{fill:#07272d;}.cls-2{fill:#00c65e;}</style></defs><path class="cls-1" d="M23,3v18.1a2.18,2.18,0,0,1-2.17,2.17H1V21.38H21.17V2.62H1V.78H20.83A2.18,2.18,0,0,1,23,3Z"/><path class="cls-2" d="M9.82,7.21a.92.92,0,0,1-.92.91H7.21v1.7a.92.92,0,0,1-1.83,0V8.12H2.78V6.3h2.6V3.69H7.21V6.3H8.9A.91.91,0,0,1,9.82,7.21Z"/><path class="cls-2" d="M8.79,19.07a1,1,0,0,1-1.3,0L6.3,17.86,4.46,19.71l-1.3-1.3L5,16.58,3.16,14.73l1.3-1.28L6.3,15.28l1.19-1.2a1,1,0,0,1,1.3,0,.92.92,0,0,1,0,1.3l-1.2,1.2,1.2,1.18A.93.93,0,0,1,8.79,19.07Z"/><path class="cls-2" d="M19.28,7.21a.92.92,0,0,1-.92.91H12.24V6.3h6.12A.91.91,0,0,1,19.28,7.21Z"/><path class="cls-2" d="M19.28,16.44a.92.92,0,0,1-.92.92H12.24V15.52h6.12A.92.92,0,0,1,19.28,16.44Z"/><path class="cls-2" d="M16.93,13.93a1.18,1.18,0,0,1-2.35,0,1.18,1.18,0,0,1,2.35,0Z"/><path class="cls-2" d="M16.93,18.94a1.18,1.18,0,1,1-1.17-1.17A1.17,1.17,0,0,1,16.93,18.94Z"/></svg>