<svg id="Camada_1" data-name="Camada 1" xmlns="http://www.w3.org/2000/svg" viewBox="0 0 24 24"><defs><style>.cls-1{fill:#00c65e;}.cls-2{fill:#07272d;}</style></defs><path class="cls-1" d="M7.49,15.45a.74.74,0,0,1-.74.74H2.29V14.71H6.75A.74.74,0,0,1,7.49,15.45Z"/><path class="cls-1" d="M7.49,10.34a.74.74,0,0,1-.74.74H2.29V9.58H6.75A.76.76,0,0,1,7.49,10.34Z"/><path class="cls-1" d="M6.06,12.82a.7.7,0,0,1-.64.74H1V12.07H5.42A.7.7,0,0,1,6.06,12.82Z"/><path class="cls-2" d="M21.53,5H4.63v1.5l8.93,6.45L21.5,7.26V17.53H4.63V19h16.9A1.47,1.47,0,0,0,23,17.55V6.45A1.47,1.47,0,0,0,21.53,5Zm-8,6.11L7.18,6.47H20Z"/></svg>