<svg id="Camada_1" data-name="Camada 1" xmlns="http://www.w3.org/2000/svg" viewBox="0 0 24 24"><defs><style>.cls-1{fill:#00c65e;}.cls-2{fill:#07272d;}</style></defs><path class="cls-1" d="M23,4.07V19.78a1.37,1.37,0,0,1-.53,1.08,1.43,1.43,0,0,1-.81.27,1.57,1.57,0,0,1-.37-.05l-7.25-2v-2l7.13,2.05V4.72L14,6.71V5l7.24-2.17A1.34,1.34,0,0,1,23,4.07Z"/><polygon class="cls-2" points="2.84 19.11 9.96 17.07 9.96 19.05 1 21.55 1 2.27 9.95 4.95 9.96 6.71 2.84 4.72 2.84 19.11"/><rect class="cls-2" x="11.08" y="1.14" width="1.84" height="21.73"/></svg>