<svg id="Camada_1" data-name="Camada 1" xmlns="http://www.w3.org/2000/svg" viewBox="0 0 24 24"><defs><style>.cls-1{fill:#07272d;}.cls-2{fill:#00c65e;}</style></defs><path class="cls-1" d="M22.85,16a1.24,1.24,0,0,1-.65,1.14l-9.6,5.39-.11-.07L.85,15.89l4.92-2.28,1.9,1.06L4.73,16l7.87,4.42L20.48,16l-2.95-1.36,1.9-1.06,2.69,1.25A1.24,1.24,0,0,1,22.85,16Z"/><path class="cls-2" d="M22.85,11.49a1.25,1.25,0,0,1-.65,1.15L12.6,18,12.49,18,2.24,12.2l2-.91L12.6,16l7.88-4.41-2.95-1.36,1.9-1.07,2.69,1.25A1.25,1.25,0,0,1,22.85,11.49Z"/><path class="cls-1" d="M22.12,5.94,12.6,1.53.85,7,12.6,13.56l9.6-5.38a1.25,1.25,0,0,0-.08-2.24ZM12.6,3.48l7.88,3.65L12.6,11.54,4.73,7.13Z"/></svg>