<svg id="Camada_1" data-name="Camada 1" xmlns="http://www.w3.org/2000/svg" viewBox="0 0 24 24"><defs><style>.cls-1{fill:#00c65e;}.cls-2{fill:#07272d;}</style></defs><rect class="cls-1" x="11.12" y="1" width="1.76" height="22"/><path class="cls-2" d="M18.63,7.8a.94.94,0,0,1-.26.7,1,1,0,0,1-1.32,0,.92.92,0,0,1-.28-.66,2.08,2.08,0,0,0-.63-1.68A3.6,3.6,0,0,0,14.42,5.1a9,9,0,0,0-4.84,0,4,4,0,0,0-1.76,1,2.18,2.18,0,0,0-.64,1.63,2.25,2.25,0,0,0,.6,1.64,4.42,4.42,0,0,0,1.77,1c.24.07.5.16.78.23l.18.06v1.83l-.3-.08-.92-.24a8.32,8.32,0,0,1-2.06-.92,4.21,4.21,0,0,1-1.4-1.45,4.12,4.12,0,0,1-.5-2.07,3.84,3.84,0,0,1,.94-2.63A5.89,5.89,0,0,1,8.7,3.54,9.78,9.78,0,0,1,12,3a10.24,10.24,0,0,1,3.3.52A5.38,5.38,0,0,1,17.7,5.18,3.66,3.66,0,0,1,18.63,7.8Z"/><path class="cls-2" d="M19,16.14a4,4,0,0,1-.53,2.09,4.69,4.69,0,0,1-1.48,1.53,7.08,7.08,0,0,1-2.2.92A11.22,11.22,0,0,1,12,21a11,11,0,0,1-2.82-.33A6.67,6.67,0,0,1,7,19.73a4.5,4.5,0,0,1-1.4-1.55,4.76,4.76,0,0,1-.56-2.07v-1H6.92v.61c0,.09,0,.19,0,.29a2.79,2.79,0,0,0,1.33,2.34,6.88,6.88,0,0,0,3.73.87,8.5,8.5,0,0,0,2.76-.4,3.88,3.88,0,0,0,1.75-1.06,2.32,2.32,0,0,0,.58-1.6A2.26,2.26,0,0,0,15.84,14a9.86,9.86,0,0,0-2.17-.8l-.18,0v-1.8l.3.06c.43.11.85.23,1.24.35a8.35,8.35,0,0,1,2.08.93,4.17,4.17,0,0,1,1.36,1.42A4,4,0,0,1,19,16.14Z"/></svg>