<svg id="Camada_1" data-name="Camada 1" xmlns="http://www.w3.org/2000/svg" viewBox="0 0 24 24"><defs><style>.cls-1{fill:#07272d;}.cls-2{fill:#00c65e;}</style></defs><path class="cls-1" d="M23,11a5.6,5.6,0,0,1-.84,2.93A7.63,7.63,0,0,1,20,16.25a12.16,12.16,0,0,1-7,2.05,12.14,12.14,0,0,1-1.36-.07L5.89,20.3,6,16.25a9.56,9.56,0,0,1-1-.78L4.53,15l.66,0,2.11,0h.24l0,3,3.93-1.41h.13c.32,0,.66.06,1,.07H13A10.62,10.62,0,0,0,19.06,15a5,5,0,0,0,2.38-4,5,5,0,0,0-2.38-4A10.61,10.61,0,0,0,13,5.27,11.63,11.63,0,0,0,8.75,6l-.09,0H5.53L6.2,5.6A12.42,12.42,0,0,1,13,3.7a12.24,12.24,0,0,1,7,2.06,7.6,7.6,0,0,1,2.2,2.3A5.65,5.65,0,0,1,23,11Z"/><path class="cls-2" d="M7.89,13.19a.78.78,0,0,1-.78.78H2.38V12.41H7.11A.78.78,0,0,1,7.89,13.19Z"/><path class="cls-2" d="M7.89,7.73a.78.78,0,0,1-.78.78H2.38V7H7.11A.77.77,0,0,1,7.89,7.73Z"/><path class="cls-2" d="M6.35,10.38a.72.72,0,0,1-.66.78H1V9.6H5.69A.72.72,0,0,1,6.35,10.38Z"/></svg>